<?xml version="1.0" standalone="no"?>
<!DOCTYPE svg PUBLIC "-//W3C//DTD SVG 20010904//EN"
 "http://www.w3.org/TR/2001/REC-SVG-20010904/DTD/svg10.dtd">
<svg version="1.0" xmlns="http://www.w3.org/2000/svg"
 width="300.000000pt" height="184.000000pt" viewBox="0 0 300.000000 184.000000"
 preserveAspectRatio="xMidYMid meet">
<metadata>
Created by potrace 1.10, written by Peter Selinger 2001-2011
</metadata>
<g transform="translate(0.000000,184.000000) scale(0.100000,-0.100000)"
fill="#000000" stroke="none">
<path d="M1465 1449 c-33 -4 -85 -17 -115 -28 -70 -26 -156 -80 -144 -90 42
-37 134 -100 134 -92 0 5 -18 29 -40 53 l-40 43 25 20 c40 33 161 65 245 65
127 0 229 -35 320 -108 43 -35 49 -37 144 -44 145 -9 202 -34 297 -128 102
-101 124 -153 124 -300 0 -133 -23 -195 -101 -279 -53 -58 -154 -120 -218
-135 -59 -14 -118 35 -118 98 0 17 19 73 42 125 47 108 53 166 9 91 -35 -60
-78 -166 -85 -211 -8 -45 13 -85 62 -118 43 -30 102 -24 190 19 180 88 278
270 253 470 -29 232 -236 410 -464 398 -57 -2 -63 0 -115 39 -126 94 -258 130
-405 112z"/>
<path d="M960 1287 c-207 -59 -340 -233 -340 -444 0 -183 93 -334 255 -414 86
-41 144 -48 190 -19 39 24 65 65 65 104 0 45 -66 204 -105 251 -15 19 -16 19
-9 -14 5 -30 41 -120 64 -163 5 -9 13 -35 16 -57 6 -37 4 -43 -32 -76 -34 -33
-43 -36 -76 -31 -114 18 -244 124 -301 243 -30 64 -32 75 -32 178 1 107 2 112
37 181 25 47 57 90 101 130 55 52 76 65 149 88 71 24 97 27 154 23 38 -3 93
-15 122 -26 29 -12 56 -20 60 -19 4 0 15 -2 25 -7 10 -4 21 -5 24 -1 3 3 -29
22 -73 42 -67 31 -91 37 -164 40 -50 2 -103 -1 -130 -9z"/>
<path d="M1525 1080 c-3 -5 -17 -10 -31 -10 -32 0 -84 -53 -84 -85 0 -14 -5
-25 -10 -25 -7 0 -7 -6 0 -19 5 -11 10 -30 10 -44 0 -14 13 -35 31 -51 17 -15
29 -30 26 -32 -13 -13 -143 62 -240 140 -21 16 -48 31 -60 33 -48 6 127 -134
244 -194 105 -55 200 -41 340 52 90 60 198 160 157 145 -16 -5 -61 -34 -100
-64 -77 -58 -187 -120 -196 -111 -3 3 8 19 24 36 26 27 29 37 29 95 0 61 -2
68 -33 95 -18 16 -41 29 -52 29 -10 0 -22 5 -25 10 -3 6 -10 10 -15 10 -5 0
-12 -4 -15 -10z m78 -50 c63 -50 49 -147 -25 -183 -107 -52 -202 88 -117 172
38 38 101 43 142 11z"/>
<path d="M1909 938 c-45 -62 -150 -280 -156 -327 -4 -32 0 -49 23 -88 l29 -48
2 55 c2 30 5 74 8 97 6 41 7 42 32 32 21 -8 33 -5 62 14 51 34 137 114 130
121 -3 3 -23 -3 -45 -13 -27 -14 -40 -16 -43 -8 -7 21 -33 47 -42 41 -13 -8
-22 23 -13 44 4 9 6 20 6 25 -1 4 2 7 7 7 10 0 44 80 37 87 -2 3 -19 -15 -37
-39z m10 -152 c21 -26 9 -69 -22 -80 -43 -15 -53 3 -28 53 23 44 32 49 50 27z"/>
<path d="M1136 944 c3 -16 15 -44 26 -61 20 -34 21 -68 1 -68 -6 0 -20 -10
-31 -22 -23 -27 -35 -28 -68 -7 -13 9 -27 14 -30 11 -8 -8 64 -78 119 -115 38
-27 50 -30 71 -22 23 8 26 7 31 -23 3 -18 6 -61 8 -97 l2 -65 24 33 c40 57 39
104 -6 207 -45 102 -114 225 -138 245 -15 12 -16 10 -9 -16z m64 -184 c22 -44
20 -60 -10 -60 -44 0 -68 68 -32 89 9 6 18 11 19 11 2 0 12 -18 23 -40z"/>
<path d="M642 244 c-27 -19 -29 -64 -4 -86 9 -9 30 -20 46 -25 17 -5 32 -15
34 -21 6 -18 -28 -27 -50 -13 -19 12 -58 7 -58 -8 0 -14 34 -39 60 -46 59 -14
115 38 90 84 -6 12 -31 31 -56 41 -24 11 -44 24 -44 30 0 13 43 13 56 1 5 -6
17 -4 29 5 20 15 20 15 -4 35 -28 23 -69 25 -99 3z"/>
<path d="M790 150 l0 -110 25 0 25 0 0 110 0 110 -25 0 -25 0 0 -110z"/>
<path d="M880 155 l0 -105 60 0 c34 0 74 7 89 15 64 33 65 130 2 172 -26 17
-48 23 -92 23 l-59 0 0 -105z m134 39 c40 -39 5 -104 -56 -104 -28 0 -28 1
-28 60 l0 60 34 0 c19 0 42 -7 50 -16z"/>
<path d="M1116 154 l1 -106 57 0 c31 0 61 1 66 1 6 1 10 10 10 21 0 17 -7 20
-45 20 -38 0 -45 3 -45 20 0 17 7 20 40 20 36 0 40 2 40 26 0 23 -3 25 -37 22
-29 -2 -38 1 -41 15 -3 14 4 17 42 17 42 0 46 2 46 25 0 24 -2 25 -67 25 l-68
0 1 -106z"/>
<path d="M1360 152 l0 -108 63 4 c47 3 66 9 80 24 18 22 23 63 8 73 -5 3 -7
21 -4 39 8 51 -22 76 -92 76 l-55 0 0 -108z m108 41 c-2 -12 -13 -18 -33 -18
-20 0 -31 6 -33 18 -3 14 4 17 33 17 29 0 36 -3 33 -17z m3 -69 c16 -19 2 -34
-31 -34 -31 0 -45 13 -37 34 7 17 53 17 68 0z"/>
<path d="M1562 203 c17 -32 35 -62 40 -67 4 -6 8 -29 8 -53 0 -24 4 -43 9 -43
29 0 41 14 41 48 0 22 13 60 35 99 19 35 35 66 35 68 0 3 -11 5 -25 5 -19 0
-29 -10 -45 -40 -11 -22 -24 -40 -29 -40 -4 0 -16 18 -26 40 -15 33 -23 40
-47 40 l-28 0 32 -57z"/>
<path d="M1851 234 c-12 -15 -21 -32 -21 -38 0 -23 25 -46 65 -59 42 -15 53
-39 21 -45 -10 -2 -29 2 -43 9 -17 9 -26 10 -35 1 -18 -18 -1 -40 40 -53 32
-9 44 -8 71 5 29 15 32 21 29 54 -3 33 -8 39 -50 60 -59 27 -64 47 -10 39 54
-9 71 5 36 32 -37 29 -78 27 -103 -5z"/>
<path d="M2010 149 c0 -109 0 -110 23 -107 21 3 22 8 25 111 l3 107 -26 0 -25
0 0 -111z"/>
<path d="M2100 152 l0 -107 69 5 c79 6 114 29 125 81 15 76 -44 129 -144 129
l-50 0 0 -108z m132 41 c40 -36 6 -103 -52 -103 -30 0 -30 0 -30 60 l0 60 32
0 c17 0 40 -7 50 -17z"/>
<path d="M2330 153 l0 -108 65 0 c61 0 65 1 65 23 0 19 -5 22 -40 22 -33 0
-40 3 -40 20 0 16 7 20 35 20 31 0 35 3 35 26 0 25 -2 26 -35 21 -30 -5 -35
-3 -35 14 0 16 7 19 40 19 36 0 40 3 40 25 0 24 -2 25 -65 25 l-65 0 0 -107z"/>
</g>
</svg>
